HIERARCHY
ROOT Hips
{
	OFFSET -0.179506 -22.333345 2.821913
	CHANNELS 6 Xposition Yposition Zposition Zrotation Yrotation Xrotation 
	JOINT LeftUpLeg
	{
		OFFSET 6.951974 -9.140623 -0.681533
		CHANNELS 3 Zrotation Yrotation Xrotation
		JOINT LeftLeg
		{
			OFFSET 3.427654 -37.519855 -0.449580
			CHANNELS 3 Zrotation Yrotation Xrotation
			JOINT LeftFoot
			{
				OFFSET -1.359570 -39.796059 -4.369333
				CHANNELS 3 Zrotation Yrotation Xrotation
				JOINT LeftToe
				{
					OFFSET 2.635814 -5.579078 11.928840
					CHANNELS 3 Zrotation Yrotation Xrotation
					End Site
					{
						OFFSET 0.000000 0.000000 0.000000
					}
				}
			}
		}
	}
	JOINT RightUpLeg
	{
		OFFSET -6.767048 -9.052170 -0.431982
		CHANNELS 3 Zrotation Yrotation Xrotation
		JOINT RightLeg
		{
			OFFSET -3.829005 -38.256897 -0.885003
			CHANNELS 3 Zrotation Yrotation Xrotation
			JOINT RightFoot
			{
				OFFSET 1.577377 -39.841461 -4.231180
				CHANNELS 3 Zrotation Yrotation Xrotation
				JOINT RightToe
				{
					OFFSET -2.537174 -4.814398 12.334795
					CHANNELS 3 Zrotation Yrotation Xrotation
					End Site
					{
						OFFSET 0.000000 0.000000 0.000000
					}
				}
			}
		}
	}
	JOINT Spine
	{
		OFFSET -0.253288 10.896323 -2.669631
		CHANNELS 3 Zrotation Yrotation Xrotation
		JOINT Spine1
		{
			OFFSET 0.548704 13.518043 0.109247
			CHANNELS 3 Zrotation Yrotation Xrotation
			JOINT Spine2
			{
				OFFSET 0.145701 5.292222 2.542457
				CHANNELS 3 Zrotation Yrotation Xrotation
				JOINT Neck
				{
					OFFSET -0.277840 21.387037 -4.285703
					CHANNELS 3 Zrotation Yrotation Xrotation
					JOINT Head
					{
						OFFSET 0.515184 6.496960 5.134897
						CHANNELS 3 Zrotation Yrotation Xrotation
						End Site
						{
							OFFSET 0.000000 0.000000 0.000000
						}
					}
				}
				JOINT LeftShoulder
				{
					OFFSET 7.884473 12.174932 -3.408961
					CHANNELS 3 Zrotation Yrotation Xrotation
					JOINT LeftArm
					{
						OFFSET 9.097692 3.046888 -0.886815
						CHANNELS 3 Zrotation Yrotation Xrotation
						JOINT LeftForeArm
						{
							OFFSET 25.961220 -1.277207 -2.745643
							CHANNELS 3 Zrotation Yrotation Xrotation
							JOINT LeftHand
							{
								OFFSET 24.923361 0.898606 -0.117091
								CHANNELS 3 Zrotation Yrotation Xrotation
								End Site
								{
									OFFSET 0.000000 0.000000 0.000000
								}
							}
						}
					}
				}
				JOINT RightShoulder
				{
					OFFSET -8.175920 11.883285 -3.861528
					CHANNELS 3 Zrotation Yrotation Xrotation
					JOINT RightArm
					{
						OFFSET -9.601238 3.255117 -0.914307
						CHANNELS 3 Zrotation Yrotation Xrotation
						JOINT RightForeArm
						{
							OFFSET -25.374195 -1.332924 -2.140099
							CHANNELS 3 Zrotation Yrotation Xrotation
							JOINT RightHand
							{
								OFFSET -25.529810 0.777228 -0.555919
								CHANNELS 3 Zrotation Yrotation Xrotation
								End Site
								{
									OFFSET 0.000000 0.000000 0.000000
								}
							}
						}
					}
				}
			}
		}
	}
}
MOTION
Frames: 10
Frame Time: 0.033333
119.511513 119.563248 15.971185 89.089211 -0.006838 -179.632713 3.104826 0.495094 0.112814 -3.115715 -2.387103 10.457832 1.008373 9.755165 -9.116312 nan nan nan -10.649558 -6.041849 -1.165974 5.274603 -3.526423 13.058919 8.453763 -1.220146 -5.919877 nan nan nan 3.149940 2.489297 -7.469705 -0.372359 -2.755086 7.601687 -0.198349 0.892763 -6.956468 -2.209701 0.799332 -27.967700 -1.420295 4.115352 -22.144601 -29.152828 -8.768826 10.726663 -41.412595 16.864493 1.118069 163.019608 -36.865065 -120.304658 22.221409 -25.161542 4.704307 19.207555 9.518805 10.146960 27.258407 -6.623282 -16.134719 -168.854488 34.798538 -133.663139 -19.477767 26.307991 12.520544 
119.587311 119.423470 15.512349 89.699973 -1.044326 179.064855 4.013254 0.931093 1.921781 -3.191092 -3.668020 9.987746 0.599144 9.363601 -9.219987 nan nan nan -9.980732 -5.783105 0.819819 5.355172 -4.207325 13.166496 8.413011 -1.406274 -6.422954 nan nan nan 3.224340 2.168343 -7.141017 0.029934 -3.047616 8.361628 0.139951 0.730282 -7.071560 -2.632024 0.465266 -26.469802 -1.273789 3.817778 -23.257492 -30.681052 -9.646729 11.577435 -40.407833 17.297382 0.558898 162.642120 -37.520666 -119.911115 22.574164 -26.051666 7.109666 19.986661 10.096847 10.436777 26.137766 -8.167367 -16.886472 -168.648903 34.794073 -133.522909 -19.494086 27.078049 13.110590 
119.609283 119.413307 15.500050 89.762436 -0.972865 178.986964 4.026219 0.950210 2.079697 -3.132212 -3.806280 9.853207 0.566079 9.369498 -9.121199 nan nan nan -9.830122 -5.736067 0.841209 5.316400 -4.185805 13.226394 8.253630 -1.400904 -6.618814 nan nan nan 3.285014 2.180761 -7.066441 0.029892 -3.000263 8.581047 0.153486 0.759832 -7.331610 -2.622391 0.463153 -26.398560 -1.234474 3.756601 -23.320655 -31.117891 -9.721895 11.586144 -39.916079 17.495484 0.567826 162.475550 -37.400349 -119.725663 22.831903 -26.271342 7.735196 20.298453 10.194056 10.509048 25.842815 -8.494784 -16.857273 -168.567596 34.741398 -133.471651 -19.682380 27.343527 13.319792 
119.620880 119.404694 15.485719 89.773170 -0.945492 178.933552 4.003086 0.936459 2.197362 -3.100077 -3.917970 9.740900 0.565084 9.356458 -8.993422 nan nan nan -9.769485 -5.737634 0.865176 5.292314 -4.170187 13.268324 8.114157 -1.411068 -6.765511 nan nan nan 3.285539 2.198309 -7.040090 0.020110 -2.980234 8.748714 0.158968 0.764955 -7.492573 -2.605070 0.458161 -26.405528 -1.220580 3.741008 -23.342796 -31.332376 -9.734609 11.599098 -39.578509 17.630527 0.616228 162.392130 -37.246011 -119.728740 22.874316 -26.300561 7.883846 20.471244 10.245955 10.529158 25.756095 -8.654555 -16.766869 -168.503395 34.558728 -133.539475 -19.714241 27.396843 13.133403 
119.673157 119.596565 14.931374 90.214929 -3.213039 178.555509 4.284019 0.101410 2.636383 -2.825173 -5.167820 9.827486 0.236796 9.035854 -9.257952 nan nan nan -10.024220 -7.023717 3.697643 6.214946 -4.696249 10.737535 8.751279 -1.492766 -6.378685 nan nan nan 3.322952 2.734453 -8.768860 0.410818 -4.287151 9.633987 0.564715 0.066750 -6.836026 -3.688596 -0.975034 -25.623042 -0.810012 4.097888 -23.574649 -32.788992 -11.027873 13.485539 -39.587819 17.993266 0.020465 161.848497 -36.639099 -121.584934 24.482338 -26.528990 6.346726 20.812151 10.841954 11.238178 25.367722 -10.795301 -17.561871 -167.822118 33.962664 -135.447165 -20.431223 28.122448 12.064912 
119.547104 119.583832 14.866551 89.703004 -3.928547 178.709797 3.552932 -0.708693 2.321299 -2.901501 -5.535689 10.125110 0.574911 9.404001 -9.119492 nan nan nan -11.450697 -7.351927 4.089430 7.308625 -5.777118 10.556669 9.727807 -0.623097 -6.899504 nan nan nan 4.554387 2.638465 -10.527070 -1.198547 -5.205020 12.086189 -0.167030 -0.052903 -9.225499 -5.408039 -2.707583 -19.227282 -0.738032 4.269400 -25.983551 -32.309848 -14.159890 20.708632 -42.462591 21.015412 -4.793553 160.733542 -35.870851 -114.648853 35.161240 -31.341064 10.237756 16.009833 14.846598 14.506112 34.075646 -11.111660 -20.894043 -168.702886 33.070463 -134.647735 -27.997645 29.518054 8.577858 
119.559471 119.523651 14.915976 89.647928 -4.053885 178.761545 3.355606 -1.017062 2.195996 -2.722266 -5.184045 10.192500 0.548529 9.296210 -9.160421 nan nan nan -11.667322 -7.435229 4.052049 7.410055 -6.101394 10.603639 10.201610 -0.396316 -6.706343 nan nan nan 4.113363 2.625430 -10.514082 -0.903178 -5.054367 11.203939 0.034636 -0.160946 -8.410796 -5.424396 -2.070913 -19.105519 -0.982131 3.561042 -26.273623 -29.891187 -13.702774 19.039792 -43.480630 19.462202 -4.082439 161.339552 -37.087048 -114.324467 37.428396 -32.032246 10.375955 15.309473 14.008661 14.003640 34.242031 -10.466846 -20.155161 -168.225819 33.435230 -134.365319 -29.978940 29.762345 7.576900 
119.567482 119.331497 15.042848 89.519397 -3.345466 178.674174 3.257685 -0.688097 2.384454 -2.728554 -4.788387 10.005528 0.613050 9.294310 -8.933280 nan nan nan -11.618865 -7.107390 3.519594 7.154017 -6.013407 11.244477 10.043530 -0.306833 -6.589578 nan nan nan 3.851231 2.448599 -9.978756 -0.848623 -4.666882 11.185465 0.016128 -0.032984 -8.610070 -4.973962 -1.396994 -19.678782 -1.250034 3.204189 -26.043667 -28.785102 -13.263865 18.260625 -43.470201 19.410508 -4.015167 161.580491 -36.887738 -114.186294 37.442606 -31.866077 10.520512 15.355655 13.824990 13.926365 34.120068 -9.764605 -19.703951 -167.892591 33.583812 -133.932348 -30.174657 29.573101 7.478682 
119.556000 118.939827 15.338487 89.205611 -1.332597 178.482258 3.218657 0.556386 2.865697 -2.964877 -4.064410 9.484847 0.710664 9.285081 -8.342986 nan nan nan -11.266827 -5.936940 1.943724 6.349035 -5.577827 13.050232 9.500795 -0.086414 -7.138993 nan nan nan 3.324824 1.957536 -8.371688 -0.850475 -3.521639 11.398456 -0.094258 0.500842 -9.747612 -3.779222 0.147417 -20.792723 -1.811604 2.559867 -25.460257 -26.921154 -12.252460 16.744359 -43.415642 19.413685 -3.609903 161.859513 -36.771982 -113.573016 37.665109 -31.481385 10.407371 15.508051 13.584431 13.679973 34.379328 -8.191361 -18.567673 -167.740194 33.953587 -133.146675 -30.980989 29.429721 7.111038 
119.576172 119.034492 15.247259 89.353334 -1.990432 178.523631 3.098476 0.115347 2.679112 -2.742609 -4.424851 9.594684 0.669069 9.391958 -8.327770 nan nan nan -11.277347 -6.262290 2.355351 6.607441 -5.775282 12.628673 9.498636 -0.211968 -7.140291 nan nan nan 3.543109 2.010202 -8.608152 -0.841301 -3.847691 11.316259 -0.053439 0.297581 -9.503126 -4.008773 -0.168656 -20.911149 -1.788153 2.677432 -25.419238 -26.898088 -12.625689 17.049754 -43.627374 19.398685 -3.911109 162.013404 -36.757564 -113.815035 37.943458 -31.530307 9.960629 15.300815 13.715633 13.751453 34.312964 -8.525141 -18.995801 -167.508601 33.846874 -133.097432 -31.084730 29.545923 7.036094 
